<?xml version="1.0" standalone="no"?>
<!DOCTYPE svg PUBLIC "-//W3C//DTD SVG 20010904//EN"
 "http://www.w3.org/TR/2001/REC-SVG-20010904/DTD/svg10.dtd">
<svg version="1.0" xmlns="http://www.w3.org/2000/svg"
 width="2000.000000pt" height="2000.000000pt" viewBox="0 0 2000.000000 2000.000000"
 preserveAspectRatio="xMidYMid meet">
<metadata>
Created by potrace 1.14, written by Peter Selinger 2001-2017
</metadata>
<g transform="translate(0.000000,2000.000000) scale(0.100000,-0.100000)"
fill="#000000" stroke="none">
<path d="M9790 15381 c-116 -7 -107 -12 55 -31 221 -27 639 -127 748 -180 23
-11 34 -18 24 -15 -10 3 -20 -2 -23 -10 -4 -8 -12 -15 -19 -15 -7 0 -15 -4
-17 -8 -1 -5 -55 -34 -118 -66 -153 -77 -194 -100 -198 -108 -2 -5 -10 -8 -18
-8 -13 0 -52 -18 -64 -30 -3 -3 -39 -22 -80 -44 -41 -21 -120 -61 -175 -90
l-99 -51 259 -6 c389 -10 640 -53 990 -172 857 -291 1578 -962 1933 -1797 276
-651 332 -1379 158 -2064 -284 -1112 -1133 -1995 -2229 -2315 -297 -87 -522
-120 -858 -128 -397 -9 -701 34 -1049 148 -501 165 -906 409 -1274 768 -842
823 -1171 2000 -876 3138 190 732 633 1375 1258 1822 211 151 482 298 704 381
104 39 112 50 12 16 -605 -207 -1223 -616 -1639 -1087 -55 -62 -116 -129 -135
-148 -19 -20 -35 -39 -35 -43 0 -3 -4 -10 -9 -15 -5 -5 -6 -3 -2 5 5 8 0 12
-14 12 -14 0 -19 -4 -14 -12 5 -8 0 -7 -11 2 -17 14 -18 13 -12 -3 4 -10 3
-16 -2 -13 -5 3 -14 -1 -21 -9 -7 -8 -17 -12 -23 -8 -6 4 -8 0 -4 -10 3 -9 1
-19 -5 -23 -7 -4 -8 -3 -4 4 4 7 4 12 -1 12 -8 0 -158 -75 -257 -128 -32 -18
-64 -32 -72 -32 -8 0 -14 -4 -14 -8 0 -10 -71 -47 -83 -44 -5 2 -6 -2 -2 -7 3
-6 -12 -15 -34 -21 -21 -5 -44 -17 -51 -25 -7 -8 -16 -13 -20 -10 -13 8 -79
-173 -131 -355 -101 -357 -146 -684 -146 -1070 0 -262 16 -462 58 -697 111
-629 385 -1230 793 -1743 120 -150 442 -475 581 -587 457 -366 954 -617 1500
-756 108 -28 338 -77 359 -77 2 0 140 -355 307 -790 167 -434 307 -790 310
-790 4 0 11 10 15 23 3 12 139 366 300 786 162 420 292 766 290 768 -2 2 -59
-3 -127 -12 -80 -11 -151 -15 -199 -10 -117 10 -285 36 -288 45 -2 4 -13 6
-25 3 -17 -4 -19 -3 -7 6 8 5 11 14 6 18 -4 4 -14 -1 -22 -11 -8 -11 -14 -18
-15 -15 0 2 -2 11 -4 19 -2 11 8 16 38 18 28 2 48 11 63 27 13 14 30 25 39 25
8 0 15 6 15 14 0 8 8 13 18 12 9 0 16 5 14 12 -1 6 4 12 11 12 21 0 88 50 81
62 -4 6 1 8 14 4 15 -5 20 -2 18 11 -1 12 5 17 17 15 9 -2 17 2 17 8 0 6 5 8
11 5 5 -4 18 3 28 14 10 12 24 21 30 21 7 0 9 5 6 10 -3 6 -1 10 5 10 7 0 20
10 31 23 10 12 18 16 19 9 0 -10 4 -10 20 0 11 7 18 18 16 25 -5 12 51 43 78
43 9 0 16 5 16 10 0 6 7 10 16 10 8 0 13 4 10 9 -3 5 5 12 19 15 26 7 35 26
13 26 -7 0 -5 5 5 11 9 5 21 8 26 4 15 -8 78 39 73 54 -3 8 0 11 7 7 16 -10
83 38 70 51 -7 7 -5 12 6 17 11 4 14 2 10 -7 -4 -6 -1 -5 7 3 7 8 23 16 36 18
24 2 63 32 43 32 -6 0 -11 5 -11 11 0 5 5 7 10 4 6 -4 22 1 37 10 17 12 23 13
18 4 -6 -9 -2 -9 11 2 10 9 84 35 164 58 792 232 1488 705 1997 1358 46 60 96
127 111 151 18 28 32 40 42 37 8 -4 11 -3 7 1 -4 4 1 16 10 27 13 15 14 18 3
12 -8 -4 -5 2 8 14 12 12 27 19 32 16 14 -8 50 13 47 28 -1 7 4 11 12 9 18 -4
41 17 35 32 -3 9 3 13 18 13 44 1 50 3 45 17 -4 9 4 16 24 20 16 3 29 11 29
18 0 12 43 38 62 38 5 0 23 15 41 33 18 17 42 32 52 32 25 -1 45 24 37 45 -3
8 -1 11 3 7 12 -10 56 140 100 333 266 1190 -33 2421 -814 3355 -103 124 -315
339 -436 444 -607 525 -1349 848 -2150 935 -163 18 -475 26 -625 17z m3915
-5100 c3 -5 2 -12 -3 -15 -5 -3 -9 1 -9 9 0 17 3 19 12 6z m-368 -228 c-4 -3
-2 -12 5 -20 8 -11 7 -12 -6 -7 -9 3 -16 9 -16 13 0 9 11 21 18 21 3 0 2 -3
-1 -7z"/>
<path d="M9791 13629 c-140 -13 -395 -64 -386 -78 5 -10 57 -7 74 3 10 7 12 6
6 -4 -6 -10 -4 -12 8 -7 10 4 17 1 17 -5 0 -6 3 -9 6 -5 3 3 26 -1 51 -8 26
-8 49 -13 52 -13 3 1 20 -4 36 -11 17 -7 40 -13 53 -13 12 0 22 -4 22 -9 0 -5
11 -9 24 -9 13 0 26 -3 28 -7 2 -5 26 -19 53 -33 28 -14 53 -29 57 -35 4 -5 8
-6 8 -2 0 9 106 -67 136 -98 l22 -22 -97 -47 c-263 -130 -453 -301 -591 -531
-21 -34 -14 -29 39 28 49 52 82 77 145 107 145 71 276 91 512 78 381 -21 611
-177 685 -466 10 -41 19 -90 19 -108 0 -69 -35 -64 461 -64 l449 0 0 61 c0 34
-7 108 -16 166 -52 351 -217 625 -496 824 -86 61 -300 166 -413 202 -296 96
-647 134 -964 106z"/>
<path d="M9282 12478 c-41 -146 -47 -191 -46 -363 0 -188 15 -290 63 -425 l28
-79 -36 -3 c-40 -3 -103 5 -206 29 -73 17 -77 18 -135 49 -19 10 -36 17 -37
16 -7 -5 -23 -1 -35 11 -7 6 -30 21 -51 31 -21 11 -49 30 -63 43 -14 13 -27
23 -30 23 -19 0 -225 210 -207 210 5 0 0 5 -9 11 -10 5 -18 16 -18 24 0 7 -5
15 -11 17 -5 2 -11 11 -13 20 -1 9 -11 27 -22 39 -10 12 -14 19 -7 16 6 -4 15
-3 18 3 4 6 3 10 -2 9 -22 -4 -32 2 -27 16 4 11 2 13 -9 10 -13 -5 -13 -15 0
-82 36 -189 120 -351 252 -483 204 -206 458 -321 987 -449 392 -95 400 -98
523 -159 288 -144 432 -295 516 -542 l22 -65 30 95 c44 137 57 226 56 385 -1
221 -49 404 -147 563 -25 40 -40 69 -33 65 7 -4 22 -6 35 -4 12 1 22 -2 22 -8
0 -5 23 -22 50 -37 28 -15 50 -31 50 -36 0 -4 7 -8 15 -8 8 0 15 -4 15 -8 0
-5 12 -15 27 -23 31 -16 163 -145 163 -159 0 -5 6 -13 13 -17 15 -10 77 -100
77 -113 0 -6 5 -10 11 -10 5 0 7 -4 4 -10 -3 -5 -2 -10 4 -10 5 0 13 -10 16
-22 4 -13 14 -39 23 -58 9 -19 17 -39 19 -45 1 -5 8 -30 14 -55 6 -25 14 -52
17 -60 9 -24 11 -49 18 -164 5 -99 -2 -166 -30 -301 -2 -5 -10 -27 -19 -49 -9
-21 -14 -42 -11 -47 3 -5 0 -9 -5 -9 -6 0 -10 -3 -9 -7 0 -5 -7 -26 -17 -48
-10 -22 -19 -42 -20 -45 -1 -10 -60 -95 -67 -98 -5 -2 -8 -8 -8 -13 0 -16 -62
-82 -142 -152 -72 -62 -108 -89 -108 -81 0 4 -13 -5 -29 -20 -16 -15 -33 -28
-38 -27 -14 2 -93 -34 -93 -42 0 -5 -4 -6 -8 -3 -5 3 -21 -2 -36 -10 -16 -7
-38 -14 -50 -14 -13 0 -26 -3 -30 -7 -3 -4 -14 -8 -24 -9 -168 -25 -194 -27
-293 -17 -57 6 -116 13 -130 17 -14 3 -42 7 -61 8 -20 2 -36 7 -35 12 1 5 56
37 122 70 66 34 156 86 200 115 101 69 298 267 349 352 l39 64 -61 -57 c-110
-101 -259 -154 -462 -165 -206 -10 -415 24 -555 92 -179 86 -299 265 -321 479
l-7 66 -454 0 -455 0 7 -92 c19 -256 81 -451 199 -633 191 -293 530 -498 966
-585 707 -141 1381 13 1776 405 150 148 245 312 302 524 23 87 26 114 26 291
1 156 -3 211 -18 275 -73 318 -268 547 -611 717 -188 94 -394 163 -760 254
-823 206 -958 289 -943 581 3 51 4 93 3 93 -1 0 -11 -33 -23 -72z"/>
<path d="M8413 12211 c0 -11 5 -18 9 -15 4 3 5 11 1 19 -7 21 -12 19 -10 -4z"/>
<path d="M5668 5181 c-181 -59 -283 -241 -243 -432 24 -117 88 -202 191 -253
102 -51 244 -59 344 -20 48 18 153 91 148 102 -2 4 -27 29 -56 56 l-53 49 -27
-26 c-60 -58 -177 -75 -258 -38 -48 22 -101 82 -114 131 -63 225 160 393 351
264 l51 -34 26 19 c15 11 40 32 55 49 l28 29 -38 33 c-68 60 -135 84 -248 87
-77 2 -113 -1 -157 -16z"/>
<path d="M6425 5187 c-126 -42 -210 -124 -250 -246 -25 -77 -18 -197 17 -273
130 -282 576 -291 718 -13 34 65 35 73 35 174 0 95 -3 112 -28 162 -34 70
-109 142 -185 177 -48 22 -73 27 -162 29 -67 2 -119 -2 -145 -10z m231 -150
c37 -19 81 -63 102 -102 26 -46 22 -169 -5 -221 -44 -83 -113 -119 -219 -112
-50 3 -72 10 -106 34 -147 103 -118 348 48 410 47 17 138 13 180 -9z"/>
<path d="M7080 4825 l0 -366 78 3 77 3 5 203 5 203 100 -165 100 -166 40 0 40
0 99 165 c54 91 103 168 107 171 5 3 9 -90 9 -206 l0 -211 78 3 77 3 3 363 2
362 -73 0 -73 0 -130 -220 c-71 -120 -131 -219 -134 -220 -3 0 -66 99 -139
220 l-133 220 -69 0 -69 0 0 -365z"/>
<path d="M8062 4828 l3 -363 85 0 85 0 3 96 3 96 117 5 c85 4 132 11 172 27
128 49 195 181 156 312 -20 71 -64 121 -134 156 -56 28 -59 28 -275 31 l-217
4 2 -364z m392 208 c46 -19 66 -51 66 -108 0 -92 -58 -127 -212 -128 l-68 0 0
125 0 125 90 0 c55 0 104 -6 124 -14z"/>
<path d="M8842 4830 c-112 -252 -157 -363 -148 -366 7 -3 46 -4 86 -2 l74 3
32 75 33 75 167 0 167 0 32 -75 32 -75 86 -3 c66 -2 87 0 86 10 0 7 -71 171
-157 363 l-158 350 -85 3 -86 3 -161 -361z m304 47 l51 -122 -105 -3 c-58 -1
-107 -1 -110 2 -2 3 19 62 48 131 29 69 56 123 59 120 3 -3 28 -61 57 -128z"/>
<path d="M9570 4825 l0 -366 83 3 82 3 5 212 5 211 178 -214 177 -215 68 3 67
3 3 363 2 362 -85 0 -85 0 -2 -216 -3 -216 -178 216 -178 216 -69 0 -70 0 0
-365z"/>
<path d="M10313 5178 c2 -7 64 -111 136 -231 l130 -217 3 -133 3 -132 85 0 85
0 3 132 3 133 130 217 c72 120 134 224 136 231 4 9 -16 12 -78 12 l-84 0 -89
-150 c-49 -83 -92 -153 -97 -155 -4 -3 -50 64 -101 150 l-93 155 -89 0 c-66 0
-87 -3 -83 -12z"/>
<path d="M11400 4825 l0 -365 80 0 80 0 2 219 3 220 170 -206 c94 -114 176
-212 183 -220 8 -8 38 -13 78 -13 l64 0 0 365 0 365 -80 0 -80 0 -2 -217 -3
-217 -179 217 -178 217 -69 0 -69 0 0 -365z"/>
<path d="M12452 5173 c-19 -37 -312 -701 -312 -707 0 -4 39 -5 86 -4 l87 3 31
78 31 77 169 -2 168 -3 27 -65 c38 -94 32 -90 127 -90 77 0 85 2 80 18 -3 9
-75 172 -160 362 l-155 345 -85 3 c-73 2 -86 0 -94 -15z m152 -300 c25 -62 46
-115 46 -118 0 -3 -49 -5 -109 -5 l-110 0 39 93 c21 50 46 110 55 132 19 47
16 52 79 -102z"/>
<path d="M13022 4828 l3 -363 80 0 80 0 5 201 5 202 100 -164 100 -164 40 0
40 0 100 169 100 169 5 -207 5 -206 80 0 80 0 3 260 c2 143 0 306 -3 363 l-7
102 -68 0 -68 0 -122 -207 c-68 -115 -128 -214 -135 -221 -9 -10 -40 34 -145
208 l-133 220 -74 0 -73 0 2 -362z"/>
<path d="M14010 4825 l0 -365 285 0 285 0 0 70 0 70 -200 0 -200 0 0 85 0 85
170 0 170 0 0 65 0 65 -170 0 -170 0 0 75 0 75 190 0 190 0 0 70 0 70 -275 0
-275 0 0 -365z"/>
<path d="M8828 4160 c-106 -32 -167 -142 -138 -249 34 -128 185 -184 326 -122
l44 20 0 80 0 81 -45 0 -45 0 0 -59 c0 -52 -2 -59 -22 -65 -71 -19 -139 11
-164 71 -21 50 -10 99 31 140 28 28 40 33 82 33 29 0 60 -7 79 -19 30 -18 30
-18 60 6 l29 24 -30 24 c-49 41 -138 56 -207 35z"/>
<path d="M7910 4125 l0 -35 65 0 65 0 0 -160 0 -160 45 0 45 0 0 160 0 160 60
0 60 0 0 35 0 35 -170 0 -170 0 0 -35z"/>
<path d="M8319 3965 l-87 -195 48 0 c46 0 47 1 63 40 l15 40 95 0 94 0 13 -40
c13 -39 14 -40 62 -40 26 0 48 1 48 3 0 2 -38 88 -85 192 l-84 190 -48 3 -48
3 -86 -196z m165 29 c15 -37 25 -68 23 -71 -3 -2 -29 -3 -60 -1 l-54 3 26 68
c14 37 29 67 32 67 4 0 19 -30 33 -66z"/>
<path d="M9140 3965 l0 -195 146 0 145 0 -3 38 -3 37 -97 3 -98 3 0 154 0 155
-45 0 -45 0 0 -195z"/>
<path d="M9480 3965 l0 -195 45 0 45 0 0 195 0 195 -45 0 -45 0 0 -195z"/>
<path d="M9660 3965 l0 -195 45 0 44 0 3 118 3 117 94 -117 c91 -113 96 -118
133 -118 l38 0 0 195 0 195 -45 0 -44 0 -3 -114 -3 -115 -93 115 c-90 110 -94
114 -132 114 l-40 0 0 -195z"/>
<path d="M10110 3965 l0 -195 155 0 155 0 0 35 0 35 -105 0 -105 0 0 45 0 44
88 3 87 3 0 35 0 35 -87 3 -88 3 0 39 0 40 100 0 100 0 0 35 0 35 -150 0 -150
0 0 -195z"/>
<path d="M10650 3965 l0 -195 45 0 45 0 0 80 0 80 85 0 85 0 0 -80 0 -80 50 0
50 0 0 195 0 195 -50 0 -50 0 0 -75 0 -75 -85 0 -85 0 0 75 0 75 -45 0 -45 0
0 -195z"/>
<path d="M11100 3965 l0 -195 150 0 150 0 0 35 0 35 -105 0 -105 0 0 45 0 45
90 0 90 0 0 40 0 40 -90 0 -90 0 0 40 0 40 105 0 105 0 0 35 0 35 -150 0 -150
0 0 -195z"/>
<path d="M11480 3965 l0 -195 45 0 45 0 0 55 0 55 40 0 c36 0 42 -4 77 -55 37
-53 39 -54 86 -55 54 0 54 -3 -1 73 l-34 47 30 28 c57 53 61 151 10 200 -37
34 -73 42 -189 42 l-109 0 0 -195z m210 112 c21 -11 25 -20 25 -57 0 -37 -4
-46 -25 -57 -14 -7 -46 -13 -72 -13 l-48 0 0 70 0 70 48 0 c26 0 58 -6 72 -13z"/>
<path d="M11890 3965 l0 -195 150 0 150 0 0 35 0 35 -105 0 -105 0 0 45 0 45
90 0 90 0 0 40 0 40 -90 0 -90 0 0 40 0 40 100 0 100 0 0 35 0 35 -145 0 -145
0 0 -195z"/>
<path d="M10560 1215 c-10 -12 -10 -18 0 -30 19 -23 5 -42 -35 -49 -40 -8 -44
-33 -4 -28 13 1 57 5 97 8 49 5 72 11 72 20 0 8 -16 14 -42 16 -42 3 -43 4
-43 38 0 39 -23 52 -45 25z"/>
<path d="M10776 1092 c-3 -5 11 -24 31 -43 19 -19 43 -46 52 -61 12 -18 21
-24 31 -18 11 7 10 13 -5 36 -17 27 -17 27 5 44 15 11 21 23 17 34 -9 22 -34
20 -47 -4 l-11 -21 -26 21 c-28 22 -39 25 -47 12z"/>
<path d="M11154 1090 c-34 -13 -54 -50 -54 -97 0 -41 -1 -43 -31 -43 -28 0
-30 -2 -27 -32 2 -28 8 -34 31 -36 l27 -3 0 -110 0 -109 35 0 35 0 0 110 0
110 45 0 c45 0 45 0 45 35 0 34 -1 35 -40 35 -48 0 -60 18 -35 56 13 21 21 24
46 19 28 -6 29 -5 29 28 0 23 -6 37 -16 41 -22 8 -65 6 -90 -4z"/>
<path d="M10539 1076 c-91 -32 -147 -106 -156 -204 -7 -71 1 -79 93 -94 117
-20 289 11 367 65 24 16 27 24 21 51 -17 82 -88 162 -163 184 -50 15 -117 14
-162 -2z m46 -121 c14 -13 25 -36 25 -50 0 -14 -11 -37 -25 -50 -38 -39 -86
-30 -114 23 -15 29 -7 56 26 82 34 26 59 25 88 -5z m189 -18 c8 -21 6 -31 -9
-47 -26 -29 -65 -23 -85 13 -14 27 -14 29 13 52 33 29 67 22 81 -18z"/>
<path d="M12429 1069 c-17 -33 3 -69 39 -69 33 0 52 16 52 45 0 29 -19 45 -52
45 -18 0 -31 -7 -39 -21z"/>
<path d="M12562 878 l3 -213 38 -3 37 -3 0 58 0 57 58 -57 c52 -51 62 -57 100
-57 23 0 42 3 42 6 0 3 -29 38 -65 77 l-65 71 67 68 67 68 -50 0 c-46 0 -53
-4 -94 -45 -24 -25 -48 -45 -52 -45 -4 0 -8 52 -8 115 l0 115 -40 0 -40 0 2
-212z"/>
<path d="M7380 989 c0 -39 -3 -69 -7 -67 -88 45 -133 45 -179 -3 -24 -25 -29
-40 -32 -98 -3 -49 0 -77 12 -99 31 -61 111 -79 172 -41 29 17 34 18 34 5 0
-9 8 -16 20 -16 19 0 20 7 20 195 0 188 -1 195 -20 195 -18 0 -20 -7 -20 -71z
m-23 -101 c19 -18 23 -32 23 -85 0 -61 -1 -64 -32 -83 -44 -27 -84 -25 -113 4
-48 48 -45 127 7 171 37 31 77 29 115 -7z"/>
<path d="M9330 991 l0 -68 -40 19 c-74 37 -148 1 -170 -83 -22 -82 8 -163 70
-189 37 -15 95 -7 121 16 18 16 19 16 19 1 0 -11 8 -17 25 -17 l25 0 0 195 0
195 -25 0 c-24 0 -25 -2 -25 -69z m-32 -91 c32 -19 32 -21 32 -95 0 -72 -1
-75 -30 -90 -41 -21 -75 -19 -105 8 -52 44 -40 163 18 187 34 13 49 12 85 -10z"/>
<path d="M9590 865 c0 -188 1 -195 20 -195 11 0 20 7 20 15 0 12 6 11 33 -5
62 -38 142 -17 172 46 22 47 19 132 -5 172 -35 58 -135 79 -170 37 -23 -28
-30 -15 -30 55 0 63 -2 70 -20 70 -19 0 -20 -7 -20 -195z m178 30 c38 -32 50
-88 28 -139 -18 -43 -52 -61 -99 -52 -55 10 -68 33 -65 112 3 68 4 69 38 86
47 24 63 23 98 -7z"/>
<path d="M10381 1034 c-20 -25 -23 -26 -46 -14 -17 9 -29 10 -36 3 -14 -14 0
-43 22 -43 17 0 18 -5 13 -40 -5 -32 -3 -40 8 -40 9 0 18 12 21 28 3 15 17 44
31 65 14 21 26 42 26 47 0 21 -20 18 -39 -6z"/>
<path d="M8064 1035 c-9 -23 3 -45 25 -45 25 0 34 14 26 40 -7 23 -43 27 -51
5z"/>
<path d="M7560 943 c-51 -26 -80 -76 -80 -136 0 -88 58 -147 145 -147 44 0
105 27 105 46 0 22 -19 26 -42 10 -12 -9 -41 -16 -63 -16 -32 0 -47 6 -67 28
-54 59 -50 62 77 62 l115 0 0 31 c0 41 -26 94 -55 113 -39 26 -95 29 -135 9z
m114 -45 c13 -13 27 -33 31 -45 6 -23 5 -23 -88 -23 -90 0 -95 1 -90 20 8 30
61 70 93 70 16 0 40 -10 54 -22z"/>
<path d="M7843 945 c-53 -23 -70 -78 -33 -115 11 -11 47 -27 81 -37 70 -19 91
-43 63 -74 -21 -23 -77 -25 -118 -4 -25 13 -32 14 -43 2 -12 -12 -10 -17 14
-33 20 -14 46 -19 91 -19 57 0 66 3 88 28 51 59 21 113 -77 141 -72 20 -88 37
-60 65 25 25 65 27 105 6 18 -10 33 -12 39 -6 14 14 -1 31 -39 47 -41 17 -70
17 -111 -1z"/>
<path d="M8243 946 c-70 -32 -98 -150 -53 -224 36 -59 124 -77 173 -34 9 8 20
12 23 9 13 -12 -8 -77 -29 -92 -30 -21 -99 -19 -129 4 -23 19 -25 19 -36 1 -9
-15 -7 -21 13 -34 60 -39 166 -28 205 21 18 23 20 40 20 189 0 157 -1 164 -20
164 -11 0 -20 -7 -20 -15 0 -19 -9 -19 -30 0 -25 23 -80 27 -117 11z m124 -51
c20 -13 23 -24 23 -76 0 -74 -10 -94 -55 -109 -42 -14 -64 -8 -95 25 -19 20
-24 37 -24 77 0 45 4 54 33 80 36 33 71 33 118 3z"/>
<path d="M8593 941 c-35 -16 -43 -17 -43 -6 0 8 -9 15 -20 15 -19 0 -20 -7
-20 -140 0 -133 1 -140 20 -140 19 0 20 7 20 105 l0 105 33 21 c33 20 80 20
102 -2 5 -5 12 -59 13 -119 3 -100 5 -110 23 -110 18 0 19 9 19 119 0 98 -3
122 -17 140 -26 31 -79 36 -130 12z"/>
<path d="M8880 943 c-51 -26 -80 -76 -80 -136 0 -88 58 -147 145 -147 44 0
105 27 105 46 0 22 -19 26 -42 10 -12 -9 -41 -16 -63 -16 -32 0 -47 6 -67 28
-54 59 -50 62 77 62 l115 0 0 31 c0 41 -26 94 -55 113 -39 26 -95 29 -135 9z
m114 -45 c13 -13 27 -33 31 -45 6 -23 5 -23 -88 -23 -90 0 -95 1 -90 20 8 30
61 70 93 70 16 0 40 -10 54 -22z"/>
<path d="M11392 944 c-12 -8 -22 -10 -22 -5 0 6 -18 11 -40 11 l-41 0 3 -142
3 -143 38 -3 37 -3 0 94 c0 101 12 127 58 127 23 0 67 54 57 70 -9 15 -68 12
-93 -6z"/>
<path d="M11554 946 c-87 -38 -107 -178 -35 -249 25 -26 40 -31 88 -35 57 -4
133 16 133 35 0 4 -9 19 -19 32 -17 23 -18 23 -50 6 -46 -23 -111 -5 -111 31
0 11 22 14 100 14 l100 0 0 33 c0 105 -109 175 -206 133z m110 -78 c9 -12 16
-26 16 -30 0 -5 -27 -8 -60 -8 -64 0 -73 9 -43 42 23 25 68 23 87 -4z"/>
<path d="M11861 942 c-48 -24 -73 -62 -79 -120 -9 -98 49 -162 148 -162 47 0
120 23 120 38 0 3 -9 16 -21 28 -20 21 -22 21 -60 6 -45 -17 -80 -8 -99 28
-10 20 -8 20 90 20 l100 0 0 43 c0 105 -105 168 -199 119z m103 -68 c31 -31
20 -44 -38 -44 -63 0 -75 11 -46 40 24 24 63 26 84 4z"/>
<path d="M12205 945 c-19 -10 -31 -12 -33 -6 -2 6 -19 11 -38 11 l-34 0 0
-200 0 -200 40 0 40 0 0 65 c0 60 9 80 25 55 10 -16 95 -11 126 7 35 21 69 86
69 134 0 43 -27 97 -61 122 -36 26 -97 32 -134 12z m75 -70 c58 -30 47 -125
-17 -141 -34 -9 -75 13 -87 48 -12 33 7 82 37 96 30 14 34 14 67 -3z"/>
<path d="M8070 810 c0 -133 1 -140 20 -140 19 0 20 7 20 140 0 133 -1 140 -20
140 -19 0 -20 -7 -20 -140z"/>
<path d="M9874 935 c3 -8 28 -71 57 -140 53 -129 56 -156 22 -190 -9 -9 -24
-14 -34 -12 -15 4 -19 0 -19 -20 0 -24 2 -25 37 -20 20 4 43 12 50 20 11 10
163 360 163 373 0 2 -11 4 -24 4 -21 0 -29 -12 -68 -110 -23 -60 -45 -110 -48
-110 -3 0 -25 50 -49 110 -40 98 -47 110 -69 110 -17 0 -23 -4 -18 -15z"/>
<path d="M12440 805 l0 -145 35 0 35 0 0 145 0 145 -35 0 -35 0 0 -145z"/>
<path d="M10788 784 c-78 -33 -225 -51 -308 -37 -36 6 -67 9 -69 7 -9 -9 65
-75 104 -94 76 -37 202 -22 265 32 36 30 91 120 72 117 -4 -1 -32 -12 -64 -25z"/>
</g>
</svg>
